# xmcd
#
# Track frame offsets:
#	150
#	14552
#	33906
#	43761
#	53891
#	70221
#	87131
#	99449
#	114948
#	132350
#	147995
#	163364
#	180276
#	195978
#	209579
#	216856
#	225323
#	239783
#	256191
#	271645
#	281717
#	294074
#	317264
#	337952
#
# Disc length: 4737 seconds
#
# Revision: 1
# Processed by: cddbd v1.5.2PL0 Copyright (c) Steve Scherf et al.
# Submitted via: audiograbber 1.83.01
#
DISCID=53127f18
DTITLE=Western Heart - Western Heart 090
DYEAR=2008
DGENRE=Country
TTITLE0=Lady  - Perly Curtis
TTITLE1=Wildhorse  - Gina Michaels
TTITLE2=Bring On The Girls - Hal Willis
TTITLE3=You Can´t Pick A Rose In December - Ernie Ashworth
TTITLE4=Young Blood - Jim Marlboro
TTITLE5=One Hot Summer Ago  - Rustie Blue
TTITLE6=Swinging Doors  - Jerry Hill
TTITLE7=Everbody Loves A Cowboy  - Tommy Young
TTITLE8=Roses, Sweet Chocc´lates And Wine  - Stan Cox
TTITLE9=Stoke The Fire  - Vin Lamar
TTITLE10=It´s A Dirty Job  - Ron Wayne Atkins
TTITLE11=Come Cryin To Me  - The Matekies
TTITLE12=Where Did We Go Wrong  - John R Butler and Jamie Cutler Harper
TTITLE13=Raised On A Gravel Road  - Big B
TTITLE14=Gramps Tune  - Perley Curtis
TTITLE15=King Of The Blues  - Ernie Ashworth
TTITLE16=Country Man  - Brenda Allen-kuhn
TTITLE17=City Cowboy  - Stan Cox
TTITLE18=Grandma´s Quilts  - Judy Welden
TTITLE19=I Don´t Belive I´ll Fall In Lov E Today  - Jerry Hill
TTITLE20=I Don´t Hurt Anymore  - David Cline
TTITLE21=Memories - Brenda Allen-kuhn
TTITLE22=Jesus Heard Every Word (i Never Said)  - Gina Michaels
TTITLE23=Natural Highs  - Judy Welden and Gary Wayne
EXTD=
EXTT0=
EXTT1=
EXTT2=
EXTT3=
EXTT4=
EXTT5=
EXTT6=
EXTT7=
EXTT8=
EXTT9=
EXTT10=
EXTT11=
EXTT12=
EXTT13=
EXTT14=
EXTT15=
EXTT16=
EXTT17=
EXTT18=
EXTT19=
EXTT20=
EXTT21=
EXTT22=
EXTT23=
PLAYORDER=
